# xmcd
#
# Track frame offsets:
#	187
#	15355
#	29360
#	45510
#	65500
#	84817
#	99940
#	113827
#	130262
#	150360
#
# Disc length: 2200 seconds
#
# Revision: 1
# Processed by: cddbd v1.5.2PL0 Copyright (c) Steve Scherf et al.
# Submitted via: audiograbber 1.83.01
#
DISCID=6608960a
DTITLE=Andy Williams - Nashville
DYEAR=1991
DGENRE=Vocal
TTITLE0=One Track Mem'ry
TTITLE1=Here and Now
TTITLE2=If I Had You
TTITLE3=After All This Time
TTITLE4=Ship in a Bottle
TTITLE5=Till Then
TTITLE6=Still Under the Weather
TTITLE7=If I Had Only Known
TTITLE8=If I Were You
TTITLE9=Last Chance
EXTD=
EXTT0=
EXTT1=
EXTT2=
EXTT3=
EXTT4=
EXTT5=
EXTT6=
EXTT7=
EXTT8=
EXTT9=
PLAYORDER=
